<svg width="16" height="16" viewBox="0 0 16 16" fill="none" xmlns="http://www.w3.org/2000/svg">
<path d="M2.75 0H4.125V0.6875H11V0H12.375V0.6875H14.4375H15.125V1.375V15.125V15.8125H14.4375H0.6875H0V15.125V1.375V0.6875H0.6875H2.75V0ZM1.375 2.0625V3.4375H13.75V2.0625H12.375V2.75H11V2.0625H4.125V2.75H2.75V2.0625H1.375ZM1.375 4.8125V14.4375H13.75V4.8125H1.375ZM5.5 6.1875H6.875V7.5625H5.5V6.1875ZM8.25 6.1875H9.625V7.5625H8.25V6.1875ZM11 6.1875H12.375V7.5625H11V6.1875ZM2.75 8.9375H4.125V10.3125H2.75V8.9375ZM5.5 8.9375H6.875V10.3125H5.5V8.9375ZM8.25 8.9375H9.625V10.3125H8.25V8.9375ZM11 8.9375H12.375V10.3125H11V8.9375ZM2.75 11.6875H4.125V13.0625H2.75V11.6875ZM5.5 11.6875H6.875V13.0625H5.5V11.6875ZM8.25 11.6875H9.625V13.0625H8.25V11.6875Z" fill="#202224"/>
</svg>
