<svg width="24" height="24" viewBox="0 0 24 24" fill="none" xmlns="http://www.w3.org/2000/svg">
<rect x="0.3" y="0.3" width="23.4" height="23.4" rx="5.7" stroke="#A3A3A3" stroke-width="0.6"/>
<path d="M7.62387 12.1761C7.38956 11.9418 7.00966 11.9418 6.77535 12.1761C6.54103 12.4104 6.54103 12.7903 6.77535 13.0247L9.77535 16.0247C10.0097 16.259 10.3896 16.259 10.6239 16.0247L17.2239 9.42465C17.4582 9.19034 17.4582 8.81044 17.2239 8.57613C16.9896 8.34181 16.6097 8.34181 16.3753 8.57613L10.1996 14.7519L7.62387 12.1761Z" fill="#656565"/>
<mask id="mask0_0_1973" style="mask-type:luminance" maskUnits="userSpaceOnUse" x="6" y="8" width="12" height="9">
<path d="M7.62387 12.1761C7.38956 11.9418 7.00966 11.9418 6.77535 12.1761C6.54103 12.4104 6.54103 12.7903 6.77535 13.0247L9.77535 16.0247C10.0097 16.259 10.3896 16.259 10.6239 16.0247L17.2239 9.42465C17.4582 9.19034 17.4582 8.81044 17.2239 8.57613C16.9896 8.34181 16.6097 8.34181 16.3753 8.57613L10.1996 14.7519L7.62387 12.1761Z" fill="white"/>
</mask>
<g mask="url(#mask0_0_1973)">
</g>
</svg>
