<svg width="19" height="19" viewBox="0 0 19 19" fill="none" xmlns="http://www.w3.org/2000/svg">
<path d="M9.2002 0.100586C14.226 0.100586 18.2998 4.1744 18.2998 9.2002C18.2998 14.226 14.226 18.2998 9.2002 18.2998C4.1744 18.2998 0.100586 14.226 0.100586 9.2002C0.100586 4.1744 4.1744 0.100586 9.2002 0.100586Z" stroke="#5C5C5C" stroke-width="0.2"/>
<path d="M9.2002 9.99309L6.93181 7.34664C6.76444 7.15138 6.49309 7.15138 6.32572 7.34664C6.15835 7.5419 6.15835 7.85849 6.32572 8.05375L8.89715 11.0537C9.06452 11.249 9.33587 11.249 9.50324 11.0537L12.0747 8.05375C12.242 7.85849 12.242 7.5419 12.0747 7.34664C11.9073 7.15138 11.6359 7.15138 11.4686 7.34664L9.2002 9.99309Z" fill="#565656"/>
<mask id="mask0_458_1011" style="mask-type:luminance" maskUnits="userSpaceOnUse" x="6" y="7" width="7" height="5">
<path d="M9.2002 9.99309L6.93181 7.34664C6.76444 7.15138 6.49309 7.15138 6.32572 7.34664C6.15835 7.5419 6.15835 7.85849 6.32572 8.05375L8.89715 11.0537C9.06452 11.249 9.33587 11.249 9.50324 11.0537L12.0747 8.05375C12.242 7.85849 12.242 7.5419 12.0747 7.34664C11.9073 7.15138 11.6359 7.15138 11.4686 7.34664L9.2002 9.99309Z" fill="white"/>
</mask>
<g mask="url(#mask0_458_1011)">
</g>
</svg>
