<svg width="27" height="27" viewBox="0 0 27 27" fill="none" xmlns="http://www.w3.org/2000/svg">
<rect width="27" height="27" rx="13.5" fill="#FF383C"/>
<path fill-rule="evenodd" clip-rule="evenodd" d="M17.6339 9.36612C18.122 9.85427 18.122 10.6457 17.6339 11.1339L10.1339 18.6339C9.64573 19.122 8.85427 19.122 8.36612 18.6339C7.87796 18.1457 7.87796 17.3543 8.36612 16.8661L15.8661 9.36612C16.3543 8.87796 17.1457 8.87796 17.6339 9.36612Z" fill="#F5F5F5"/>
<path fill-rule="evenodd" clip-rule="evenodd" d="M8.36612 9.36612C8.85427 8.87796 9.64573 8.87796 10.1339 9.36612L17.6339 16.8661C18.122 17.3543 18.122 18.1457 17.6339 18.6339C17.1457 19.122 16.3543 19.122 15.8661 18.6339L8.36612 11.1339C7.87796 10.6457 7.87796 9.85427 8.36612 9.36612Z" fill="#F5F5F5"/>
</svg>
