<svg width="17" height="17" viewBox="0 0 17 17" fill="none" xmlns="http://www.w3.org/2000/svg">
<path d="M2.40625 2.44922C4.03906 0.816406 5.98698 0 8.25 0C10.513 0 12.4466 0.816406 14.0508 2.44922C15.6836 4.05339 16.5 5.98698 16.5 8.25C16.5 10.513 15.6836 12.4609 14.0508 14.0938C12.4466 15.6979 10.513 16.5 8.25 16.5C5.98698 16.5 4.03906 15.6979 2.40625 14.0938C0.802083 12.4609 0 10.513 0 8.25C0 5.98698 0.802083 4.05339 2.40625 2.44922ZM13.1055 3.39453C11.7591 2.04818 10.1406 1.375 8.25 1.375C6.35938 1.375 4.74089 2.04818 3.39453 3.39453C2.04818 4.74089 1.375 6.35938 1.375 8.25C1.375 10.1406 2.04818 11.7591 3.39453 13.1055C4.74089 14.4518 6.35938 15.125 8.25 15.125C10.1406 15.125 11.7591 14.4518 13.1055 13.1055C14.4518 11.7591 15.125 10.1406 15.125 8.25C15.125 6.35938 14.4518 4.74089 13.1055 3.39453ZM7.73438 2.27734C7.8776 2.13411 8.04948 2.0625 8.25 2.0625C8.45052 2.0625 8.60807 2.13411 8.72266 2.27734C8.86589 2.39193 8.9375 2.54948 8.9375 2.75C8.9375 2.95052 8.86589 3.1224 8.72266 3.26562C8.60807 3.38021 8.45052 3.4375 8.25 3.4375C8.04948 3.4375 7.8776 3.38021 7.73438 3.26562C7.61979 3.1224 7.5625 2.95052 7.5625 2.75C7.5625 2.54948 7.61979 2.39193 7.73438 2.27734ZM3.86719 3.91016C4.01042 3.76693 4.16797 3.69531 4.33984 3.69531C4.54036 3.69531 4.71224 3.76693 4.85547 3.91016C4.9987 4.02474 5.07031 4.18229 5.07031 4.38281C5.07031 4.55469 4.9987 4.71224 4.85547 4.85547C4.71224 4.9987 4.54036 5.07031 4.33984 5.07031C4.16797 5.07031 4.01042 4.9987 3.86719 4.85547C3.7526 4.71224 3.69531 4.55469 3.69531 4.38281C3.69531 4.18229 3.7526 4.02474 3.86719 3.91016ZM11.6445 3.86719L12.6328 4.85547L9.58203 7.90625C9.61068 8.02083 9.625 8.13542 9.625 8.25C9.625 8.6224 9.48177 8.95182 9.19531 9.23828C8.9375 9.49609 8.6224 9.625 8.25 9.625C7.8776 9.625 7.54818 9.49609 7.26172 9.23828C7.00391 8.95182 6.875 8.6224 6.875 8.25C6.875 7.8776 7.00391 7.5625 7.26172 7.30469C7.54818 7.01823 7.8776 6.875 8.25 6.875C8.36458 6.875 8.47917 6.88932 8.59375 6.91797L11.6445 3.86719ZM2.23438 7.77734C2.3776 7.63411 2.54948 7.5625 2.75 7.5625C2.95052 7.5625 3.10807 7.63411 3.22266 7.77734C3.36589 7.89193 3.4375 8.04948 3.4375 8.25C3.4375 8.45052 3.36589 8.6224 3.22266 8.76562C3.10807 8.88021 2.95052 8.9375 2.75 8.9375C2.54948 8.9375 2.3776 8.88021 2.23438 8.76562C2.11979 8.6224 2.0625 8.45052 2.0625 8.25C2.0625 8.04948 2.11979 7.89193 2.23438 7.77734ZM13.2344 7.77734C13.3776 7.63411 13.5495 7.5625 13.75 7.5625C13.9505 7.5625 14.1081 7.63411 14.2227 7.77734C14.3659 7.89193 14.4375 8.04948 14.4375 8.25C14.4375 8.45052 14.3659 8.6224 14.2227 8.76562C14.1081 8.88021 13.9505 8.9375 13.75 8.9375C13.5495 8.9375 13.3776 8.88021 13.2344 8.76562C13.1198 8.6224 13.0625 8.45052 13.0625 8.25C13.0625 8.04948 13.1198 7.89193 13.2344 7.77734ZM3.86719 11.6445C4.01042 11.5013 4.16797 11.4297 4.33984 11.4297C4.54036 11.4297 4.71224 11.5013 4.85547 11.6445C4.9987 11.7878 5.07031 11.9596 5.07031 12.1602C5.07031 12.332 4.9987 12.4896 4.85547 12.6328C4.71224 12.7474 4.54036 12.8047 4.33984 12.8047C4.16797 12.8047 4.01042 12.7474 3.86719 12.6328C3.7526 12.4896 3.69531 12.332 3.69531 12.1602C3.69531 11.9596 3.7526 11.7878 3.86719 11.6445ZM11.6445 11.6445C11.7878 11.5013 11.9453 11.4297 12.1172 11.4297C12.3177 11.4297 12.4753 11.5013 12.5898 11.6445C12.7331 11.7878 12.8047 11.9596 12.8047 12.1602C12.8047 12.332 12.7331 12.4896 12.5898 12.6328C12.4753 12.7474 12.3177 12.8047 12.1172 12.8047C11.9453 12.8047 11.7878 12.7474 11.6445 12.6328C11.5013 12.4896 11.4297 12.332 11.4297 12.1602C11.4297 11.9596 11.5013 11.7878 11.6445 11.6445Z" fill="#3C404A"/>
</svg>
