<svg width="17" height="17" viewBox="0 0 17 17" fill="none" xmlns="http://www.w3.org/2000/svg">
<g filter="url(#filter0_i_458_3383)">
<path d="M7.5625 0H8.9375V8.25H7.5625V0ZM5.5 0.472656V1.97656C4.26823 2.49219 3.26562 3.32292 2.49219 4.46875C1.7474 5.61458 1.375 6.875 1.375 8.25C1.375 10.1406 2.04818 11.7591 3.39453 13.1055C4.74089 14.4518 6.35938 15.125 8.25 15.125C10.1406 15.125 11.7591 14.4518 13.1055 13.1055C14.4518 11.7591 15.125 10.1406 15.125 8.25C15.125 6.875 14.7383 5.61458 13.9648 4.46875C13.2201 3.32292 12.2318 2.49219 11 1.97656V0.472656C12.6328 1.04557 13.9505 2.04818 14.9531 3.48047C15.9844 4.88411 16.5 6.47396 16.5 8.25C16.5 10.513 15.6836 12.4609 14.0508 14.0938C12.4466 15.6979 10.513 16.5 8.25 16.5C5.98698 16.5 4.03906 15.6979 2.40625 14.0938C0.802083 12.4609 0 10.513 0 8.25C0 6.47396 0.501302 4.88411 1.50391 3.48047C2.53516 2.04818 3.86719 1.04557 5.5 0.472656Z" fill="#202224"/>
</g>
<defs>
<filter id="filter0_i_458_3383" x="0" y="0" width="16.5" height="20.5" filterUnits="userSpaceOnUse" color-interpolation-filters="sRGB">
<feFlood flood-opacity="0" result="BackgroundImageFix"/>
<feBlend mode="normal" in="SourceGraphic" in2="BackgroundImageFix" result="shape"/>
<feColorMatrix in="SourceAlpha" type="matrix" values="0 0 0 0 0 0 0 0 0 0 0 0 0 0 0 0 0 0 127 0" result="hardAlpha"/>
<feOffset dy="4"/>
<feGaussianBlur stdDeviation="2"/>
<feComposite in2="hardAlpha" operator="arithmetic" k2="-1" k3="1"/>
<feColorMatrix type="matrix" values="0 0 0 0 0 0 0 0 0 0 0 0 0 0 0 0 0 0 0.25 0"/>
<feBlend mode="normal" in2="shape" result="effect1_innerShadow_458_3383"/>
</filter>
</defs>
</svg>
