<svg width="92" height="92" viewBox="0 0 92 92" fill="none" xmlns="http://www.w3.org/2000/svg">
<g filter="url(#filter0_ddd_688_7232)">
<circle cx="43" cy="43" r="20" fill="url(#paint0_linear_688_7232)"/>
</g>
<g filter="url(#filter1_dd_688_7232)">
<path fill-rule="evenodd" clip-rule="evenodd" d="M44.3893 51.3326C44.3718 51.3326 44.3552 51.3317 44.3385 51.3309C43.9618 51.3084 43.6477 51.0351 43.5727 50.6651L42.291 44.3592C42.2243 44.0309 41.9685 43.7751 41.6402 43.7084L35.3343 42.4259C34.9643 42.3517 34.691 42.0376 34.6685 41.6609C34.646 41.2834 34.8785 40.9384 35.2368 40.8201L48.5702 36.3759C48.8693 36.2742 49.1993 36.3526 49.4227 36.5767C49.646 36.8001 49.7235 37.1301 49.6243 37.4292L45.1793 50.7626C45.066 51.1051 44.746 51.3326 44.3893 51.3326Z" fill="#231F20"/>
<mask id="mask0_688_7232" style="mask-type:luminance" maskUnits="userSpaceOnUse" x="34" y="36" width="16" height="16">
<path fill-rule="evenodd" clip-rule="evenodd" d="M44.3893 51.3326C44.3718 51.3326 44.3552 51.3317 44.3385 51.3309C43.9618 51.3084 43.6477 51.0351 43.5727 50.6651L42.291 44.3592C42.2243 44.0309 41.9685 43.7751 41.6402 43.7084L35.3343 42.4259C34.9643 42.3517 34.691 42.0376 34.6685 41.6609C34.646 41.2834 34.8785 40.9384 35.2368 40.8201L48.5702 36.3759C48.8693 36.2742 49.1993 36.3526 49.4227 36.5767C49.646 36.8001 49.7235 37.1301 49.6243 37.4292L45.1793 50.7626C45.066 51.1051 44.746 51.3326 44.3893 51.3326Z" fill="white"/>
</mask>
<g mask="url(#mask0_688_7232)">
<rect x="33" y="33" width="20" height="20" fill="white"/>
</g>
</g>
<defs>
<filter id="filter0_ddd_688_7232" x="0" y="0" width="92" height="92" filterUnits="userSpaceOnUse" color-interpolation-filters="sRGB">
<feFlood flood-opacity="0" result="BackgroundImageFix"/>
<feColorMatrix in="SourceAlpha" type="matrix" values="0 0 0 0 0 0 0 0 0 0 0 0 0 0 0 0 0 0 127 0" result="hardAlpha"/>
<feOffset dx="4" dy="6"/>
<feGaussianBlur stdDeviation="5"/>
<feColorMatrix type="matrix" values="0 0 0 0 0.164706 0 0 0 0 0.545098 0 0 0 0 0.94902 0 0 0 0.15 0"/>
<feBlend mode="normal" in2="BackgroundImageFix" result="effect1_dropShadow_688_7232"/>
<feColorMatrix in="SourceAlpha" type="matrix" values="0 0 0 0 0 0 0 0 0 0 0 0 0 0 0 0 0 0 127 0" result="hardAlpha"/>
<feOffset dx="2" dy="2"/>
<feGaussianBlur stdDeviation="12.5"/>
<feColorMatrix type="matrix" values="0 0 0 0 0.164706 0 0 0 0 0.545098 0 0 0 0 0.94902 0 0 0 0.05 0"/>
<feBlend mode="normal" in2="effect1_dropShadow_688_7232" result="effect2_dropShadow_688_7232"/>
<feColorMatrix in="SourceAlpha" type="matrix" values="0 0 0 0 0 0 0 0 0 0 0 0 0 0 0 0 0 0 127 0" result="hardAlpha"/>
<feOffset dx="4" dy="4"/>
<feGaussianBlur stdDeviation="12.5"/>
<feColorMatrix type="matrix" values="0 0 0 0 0.164706 0 0 0 0 0.545098 0 0 0 0 0.94902 0 0 0 0.15 0"/>
<feBlend mode="normal" in2="effect2_dropShadow_688_7232" result="effect3_dropShadow_688_7232"/>
<feBlend mode="normal" in="SourceGraphic" in2="effect3_dropShadow_688_7232" result="shape"/>
</filter>
<filter id="filter1_dd_688_7232" x="31" y="32" width="24" height="24" filterUnits="userSpaceOnUse" color-interpolation-filters="sRGB">
<feFlood flood-opacity="0" result="BackgroundImageFix"/>
<feColorMatrix in="SourceAlpha" type="matrix" values="0 0 0 0 0 0 0 0 0 0 0 0 0 0 0 0 0 0 127 0" result="hardAlpha"/>
<feOffset dy="1"/>
<feGaussianBlur stdDeviation="0.5"/>
<feColorMatrix type="matrix" values="0 0 0 0 0 0 0 0 0 0 0 0 0 0 0 0 0 0 0.03 0"/>
<feBlend mode="normal" in2="BackgroundImageFix" result="effect1_dropShadow_688_7232"/>
<feColorMatrix in="SourceAlpha" type="matrix" values="0 0 0 0 0 0 0 0 0 0 0 0 0 0 0 0 0 0 127 0" result="hardAlpha"/>
<feOffset dy="1"/>
<feGaussianBlur stdDeviation="1"/>
<feColorMatrix type="matrix" values="0 0 0 0 0 0 0 0 0 0 0 0 0 0 0 0 0 0 0.03 0"/>
<feBlend mode="normal" in2="effect1_dropShadow_688_7232" result="effect2_dropShadow_688_7232"/>
<feBlend mode="normal" in="SourceGraphic" in2="effect2_dropShadow_688_7232" result="shape"/>
</filter>
<linearGradient id="paint0_linear_688_7232" x1="52.3333" y1="60.3333" x2="29.6667" y2="27" gradientUnits="userSpaceOnUse">
<stop stop-color="#2A8BF2"/>
<stop offset="1" stop-color="#7CB8F7"/>
</linearGradient>
</defs>
</svg>
