<svg width="18" height="18" viewBox="0 0 18 18" fill="none" xmlns="http://www.w3.org/2000/svg">
<g filter="url(#filter0_i_458_3387)">
<path d="M6.74609 0H7.30469H10.0547H10.6133L10.7422 0.558594L11.1289 2.57812C11.7591 2.83594 12.3464 3.19401 12.8906 3.65234L14.9102 2.96484L15.4688 2.79297L15.7266 3.26562L17.1016 5.67188L17.3594 6.14453L16.9727 6.53125L15.4258 7.86328C15.5117 8.37891 15.5547 8.73698 15.5547 8.9375C15.5547 9.13802 15.5117 9.49609 15.4258 10.0117L16.9727 11.3438L17.3594 11.7305L17.1016 12.2031L15.7266 14.6094L15.4688 15.082L14.9102 14.9102L12.8906 14.2227C12.3464 14.681 11.7591 15.0391 11.1289 15.2969L10.7422 17.3164L10.6133 17.875H10.0547H7.30469H6.74609L6.61719 17.3164L6.23047 15.2969C5.60026 15.0391 5.01302 14.681 4.46875 14.2227L2.44922 14.9102L1.89062 15.082L1.63281 14.6094L0.257812 12.2031L0 11.7305L0.386719 11.3438L1.93359 10.0117C1.84766 9.49609 1.80469 9.13802 1.80469 8.9375C1.80469 8.73698 1.84766 8.37891 1.93359 7.86328L0.386719 6.53125L0 6.14453L0.257812 5.67188L1.63281 3.26562L1.89062 2.79297L2.44922 2.96484L4.46875 3.65234C5.01302 3.19401 5.60026 2.83594 6.23047 2.57812L6.61719 0.558594L6.74609 0ZM7.86328 1.375L7.51953 3.17969L7.43359 3.56641L7.04688 3.69531C6.27344 3.95312 5.58594 4.35417 4.98438 4.89844L4.64062 5.15625L4.29688 5.07031L2.53516 4.46875L1.71875 5.84375L3.09375 7.04688L3.4375 7.30469L3.30859 7.73438C3.22266 8.10677 3.17969 8.50781 3.17969 8.9375C3.17969 9.36719 3.22266 9.76823 3.30859 10.1406L3.4375 10.5703L3.09375 10.8281L1.71875 12.0312L2.53516 13.4062L4.29688 12.8047L4.64062 12.7188L4.98438 12.9766C5.58594 13.5208 6.27344 13.9219 7.04688 14.1797L7.43359 14.3086L7.51953 14.6953L7.86328 16.5H9.49609L9.83984 14.6953L9.92578 14.3086L10.3125 14.1797C11.0859 13.9219 11.7734 13.5208 12.375 12.9766L12.7188 12.7188L13.0625 12.8047L14.8242 13.4062L15.6406 12.0312L14.2656 10.8281L13.9648 10.5703L14.0508 10.1406C14.1367 9.76823 14.1797 9.36719 14.1797 8.9375C14.1797 8.50781 14.1367 8.10677 14.0508 7.73438L13.9219 7.30469L14.2656 7.04688L15.6406 5.84375L14.8242 4.46875L13.0625 5.07031L12.7188 5.15625L12.375 4.89844C11.7734 4.35417 11.0859 3.95312 10.3125 3.69531L9.92578 3.56641L9.83984 3.17969L9.49609 1.375H7.86328ZM6.23047 6.53125C6.91797 5.84375 7.73438 5.5 8.67969 5.5C9.625 5.5 10.4271 5.84375 11.0859 6.53125C11.7734 7.1901 12.1172 7.99219 12.1172 8.9375C12.1172 9.88281 11.7734 10.6992 11.0859 11.3867C10.4271 12.0456 9.625 12.375 8.67969 12.375C7.73438 12.375 6.91797 12.0456 6.23047 11.3867C5.57161 10.6992 5.24219 9.88281 5.24219 8.9375C5.24219 7.99219 5.57161 7.1901 6.23047 6.53125ZM10.1406 7.47656C9.73958 7.07552 9.2526 6.875 8.67969 6.875C8.10677 6.875 7.61979 7.07552 7.21875 7.47656C6.81771 7.8776 6.61719 8.36458 6.61719 8.9375C6.61719 9.51042 6.81771 9.9974 7.21875 10.3984C7.61979 10.7995 8.10677 11 8.67969 11C9.2526 11 9.73958 10.7995 10.1406 10.3984C10.5417 9.9974 10.7422 9.51042 10.7422 8.9375C10.7422 8.36458 10.5417 7.8776 10.1406 7.47656Z" fill="#202224"/>
</g>
<defs>
<filter id="filter0_i_458_3387" x="0" y="0" width="17.3594" height="21.875" filterUnits="userSpaceOnUse" color-interpolation-filters="sRGB">
<feFlood flood-opacity="0" result="BackgroundImageFix"/>
<feBlend mode="normal" in="SourceGraphic" in2="BackgroundImageFix" result="shape"/>
<feColorMatrix in="SourceAlpha" type="matrix" values="0 0 0 0 0 0 0 0 0 0 0 0 0 0 0 0 0 0 127 0" result="hardAlpha"/>
<feOffset dy="4"/>
<feGaussianBlur stdDeviation="2"/>
<feComposite in2="hardAlpha" operator="arithmetic" k2="-1" k3="1"/>
<feColorMatrix type="matrix" values="0 0 0 0 0 0 0 0 0 0 0 0 0 0 0 0 0 0 0.25 0"/>
<feBlend mode="normal" in2="shape" result="effect1_innerShadow_458_3387"/>
</filter>
</defs>
</svg>
