<svg width="20" height="15" viewBox="0 0 20 15" fill="none" xmlns="http://www.w3.org/2000/svg">
<path d="M17.832 0L18.3477 2.92188H16.9297L16.7148 1.58984L8.9375 2.92188H0.773438L17.832 0ZM0 3.60938H0.6875H1.71875H18.5625H19.25V4.29688V13.9219V14.6094H18.5625H0.6875H0V13.9219V5.32812V4.29688V3.60938ZM3.39453 4.98438C3.42318 5.1276 3.4375 5.24219 3.4375 5.32812C3.4375 5.8151 3.26562 6.23047 2.92188 6.57422C2.60677 6.88932 2.20573 7.04688 1.71875 7.04688C1.63281 7.04688 1.51823 7.03255 1.375 7.00391V11.2148C1.51823 11.1862 1.63281 11.1719 1.71875 11.1719C2.20573 11.1719 2.60677 11.3438 2.92188 11.6875C3.26562 12.0026 3.4375 12.4036 3.4375 12.8906C3.4375 12.9766 3.42318 13.0911 3.39453 13.2344H15.8555C15.8268 13.0911 15.8125 12.9766 15.8125 12.8906C15.8125 12.4036 15.9701 12.0026 16.2852 11.6875C16.6289 11.3438 17.0443 11.1719 17.5312 11.1719C17.6172 11.1719 17.7318 11.1862 17.875 11.2148V7.00391C17.7318 7.03255 17.6172 7.04688 17.5312 7.04688C17.0443 7.04688 16.6289 6.88932 16.2852 6.57422C15.9701 6.23047 15.8125 5.8151 15.8125 5.32812C15.8125 5.24219 15.8268 5.1276 15.8555 4.98438H3.39453ZM7.17578 6.70312C7.86328 6.01562 8.67969 5.67188 9.625 5.67188C10.5703 5.67188 11.3724 6.01562 12.0312 6.70312C12.7188 7.36198 13.0625 8.16406 13.0625 9.10938C13.0625 10.0547 12.7188 10.8711 12.0312 11.5586C11.3724 12.2174 10.5703 12.5469 9.625 12.5469C8.67969 12.5469 7.86328 12.2174 7.17578 11.5586C6.51693 10.8711 6.1875 10.0547 6.1875 9.10938C6.1875 8.16406 6.51693 7.36198 7.17578 6.70312ZM11.0859 7.64844C10.6849 7.2474 10.1979 7.04688 9.625 7.04688C9.05208 7.04688 8.5651 7.2474 8.16406 7.64844C7.76302 8.04948 7.5625 8.53646 7.5625 9.10938C7.5625 9.68229 7.76302 10.1693 8.16406 10.5703C8.5651 10.9714 9.05208 11.1719 9.625 11.1719C10.1979 11.1719 10.6849 10.9714 11.0859 10.5703C11.487 10.1693 11.6875 9.68229 11.6875 9.10938C11.6875 8.53646 11.487 8.04948 11.0859 7.64844Z" fill="#202224"/>
</svg>
